Simulation
nRows=39
nColumns=15
endheader
time  TH_x TH_y TH_z SC_y  SC_z  SC_x  AC_y  AC_z  AC_x  GH_y  GH_z  GH_yy  EL_x  PS_y
0.0  0.000000  0.000000  0.000000  -21.481837363305974  5.049547332879065  0.3347068766571287  40.9540517362125  -3.5339696293062888  -10.056380803102089  49.41091538227468  15.392670134842522  3.9482655933499786  20.76425915891298  120.000000
0.04802000000000001  0.000000  0.000000  0.000000  -24.101022178823197  4.6672847970262366  0.7031601757449063  43.272030796212455  -2.117094245792845  -8.635343661992408  42.69216023915607  13.503306216438896  9.623461980804144  20.252017472364813  120.000000
0.09604000000000001  0.000000  0.000000  0.000000  -26.274576356976866  4.3688585698093165  1.1337910374599605  45.482836290221535  -0.7529821041742348  -7.287011083009536  35.0711972728039  12.26641775365923  16.10314006515879  19.707749927675284  120.000000
0.14406000000000002  0.000000  0.000000  0.000000  -27.98494782768545  4.229303605122916  1.4831927670820442  47.40739769026269  0.4794194215491886  -6.079408837670337  26.980873715478427  11.666379755409862  22.890572372337363  19.100975904219876  120.000000
0.19208000000000003  0.000000  0.000000  0.000000  -29.505751946601613  4.258660146829525  1.7251692065428657  48.90227080624652  1.5420960061575029  -4.9761444109958495  19.458719523274347  11.662706731332753  28.8932178614281  18.426778046275416  120.000000
0.24010000000000004  0.000000  0.000000  0.000000  -30.949508362826204  4.478968746961774  1.864141897139245  50.020280004029004  2.4538422389213754  -3.978557409053736  13.57930705261585  12.16772749591102  33.02725675437129  17.707894955873183  120.000000
0.28812000000000004  0.000000  0.000000  0.000000  -32.39931356875568  4.8931064826584345  1.9340575844444892  50.80036852694727  3.257061888975946  -3.0705881732939706  9.546211683919706  13.05044294708304  35.09773060417174  16.96579549124949  120.000000
0.33614000000000005  0.000000  0.000000  0.000000  -33.8618795586116  5.476314853382527  1.983379535696673  51.28389919958089  4.006041148436897  -2.2312268937034836  7.005495688738164  14.219570514097132  35.47451908573747  16.210727885516476  120.000000
0.38416000000000006  0.000000  0.000000  0.000000  -35.33218360916033  6.207217848690748  2.052356536589267  51.53065026210762  4.741511871517301  -1.4511161031653366  5.499892678914534  15.631828368869298  34.63219457076318  15.458170141131465  120.000000
0.43218000000000006  0.000000  0.000000  0.000000  -36.7845205551383  7.048685043580438  2.1676142058204584  51.58014431968334  5.483602296800743  -0.7216965605531657  4.548377875480872  17.26212775945754  33.08583983153338  14.718982937997973  120.000000
0.48020000000000007  0.000000  0.000000  0.000000  -38.2033968465583  7.967054009744045  2.340556098676033  51.471693156899455  6.229741354724789  -0.03470255837545621  3.8186770221620527  19.097867273974867  31.21325655719765  14.008219121726588  120.000000
0.5282200000000001  0.000000  0.000000  0.000000  -39.5670536267416  8.926246602048316  2.5681393774895183  51.24181551663588  6.965173184324525  0.6178188966593862  3.117577419675287  21.12928643041885  29.26139748131644  13.337217908940012  120.000000
0.5762400000000001  0.000000  0.000000  0.000000  -40.86636531784042  9.891761443338993  2.8376709917375833  50.92960212391565  7.668797626619837  1.2444435764719854  2.3758028306585124  23.349007025567804  27.354537470148518  12.715593498671906  120.000000
0.62426  0.000000  0.000000  0.000000  -42.0880330364317  10.829230464171463  3.128408287446406  50.57548027579484  8.322123579231251  1.8499579516056086  1.5941362240878707  25.743347626175414  25.541511459866197  12.148001083450449  120.000000
0.6722800000000001  0.000000  0.000000  0.000000  -43.22702420531467  11.70850183878706  3.4187757959764538  50.21993583616161  8.913994917786976  2.4372232397434392  0.8137635948651283  28.293857256666115  23.81698813406131  11.635959533651578  120.000000
0.7203000000000002  0.000000  0.000000  0.000000  -44.2751863511652  12.502559149071633  3.6889595258364696  49.898594057141985  9.445169169267627  3.0060182694535658  0.08265511078271545  30.97374563155917  22.149210025002883  11.17278797756686  120.000000
0.7683200000000001  0.000000  0.000000  0.000000  -45.23030080247347  13.190252182265965  3.9207004437366604  49.64155664183346  9.931152886647132  3.5576815541234272  -0.5547844291217155  33.75228784766408  20.489553141421094  10.745059240741957  120.000000
0.8163400000000001  0.000000  0.000000  0.000000  -46.0872453713839  13.754420417896894  4.100986330948494  49.46855660240707  10.396885126715686  4.094869237179792  -1.0716949060337495  36.59625312296101  18.790699727187135  10.331351478501384  120.000000
0.8643600000000001  0.000000  0.000000  0.000000  -46.84442544217396  14.18482782966247  4.223423990085385  49.39174863654725  10.86876133226785  4.618796307452119  -1.4593851887281692  39.47510853597399  17.017345147786717  9.910317820074267  120.000000
0.9123800000000002  0.000000  0.000000  0.000000  -47.497148411051604  14.477567477601225  4.283018255848155  49.41193238456226  11.369448149005649  5.1311176292176635  -1.7315266512689726  42.362039018607284  15.158998794743447  9.465687499574427  120.000000
0.9604000000000001  0.000000  0.000000  0.000000  -48.04367577013704  14.63675542498279  4.271029385198058  49.520456213796514  11.91385096224768  5.632917503635262  -1.9204484776462456  45.23596245434562  13.235455470649832  8.99611052976043  120.000000
1.00842  0.000000  0.000000  0.000000  -48.4804979841165  14.674371194664669  4.170385480536482  49.69773590707414  12.50823181681597  6.1248185593842  -2.0720089255586616  48.07744049896215  11.29483726432158  8.514987665061119  120.000000
1.0564400000000003  0.000000  0.000000  0.000000  -48.80607185097758  14.607773523834588  3.9593096928035956  49.91658621277027  13.15149319585981  6.606951607385058  -2.2336104846017975  50.86678873516801  9.402346089428187  8.047145797384198  120.000000
1.1044600000000002  0.000000  0.000000  0.000000  -49.01640155851416  14.457252977693445  3.621020990529899  50.146126096085446  13.83389948600818  7.0756647317759045  -2.446775917346001  53.57813311075059  7.628267427888451  7.619655173751243  120.000000
1.1524800000000002  0.000000  0.000000  0.000000  -49.110570536130254  14.241826750047554  3.148914329692765  50.357234487336164  14.53930524685377  7.523639381712173  -2.7395928384385577  56.17613464723012  6.036849106694459  7.256198627748709  120.000000
1.2005000000000001  0.000000  0.000000  0.000000  -49.09431898213813  13.977058090154047  2.5442403186369735  50.52952360262793  15.25016025188299  7.942330945696551  -3.1205414505679623  58.61191436415422  4.677481708159914  6.973499107450947  120.000000
1.24852  0.000000  0.000000  0.000000  -49.00048310327642  13.672547111982956  1.8206062246232704  50.659686229929314  15.951477290131947  8.326425628262568  -3.568363091852881  60.83002484744041  3.576431891827002  6.785718086520501  120.000000
1.2965400000000002  0.000000  0.000000  0.000000  -48.87656406156103  13.338817636918058  0.9987768848863553  50.75338328563568  16.632297610857457  8.676019876549857  -4.0459579301554  62.77975858130208  2.741129126252061  6.702699161604836  120.000000
1.3445600000000002  0.000000  0.000000  0.000000  -48.75101711183499  12.99128893763509  0.09960504748173549  50.80895629677998  17.285335695232078  8.997381884894777  -4.524229387083271  64.42857555240516  2.166266061549475  6.722680998776832  120.000000
1.3925800000000002  0.000000  0.000000  0.000000  -48.62919665507978  12.648729153850168  -0.8521594038321426  50.82000802298881  17.906103442793082  9.300930641494501  -4.986729839908909  65.76658489261882  1.8316261733851937  6.828084311395848  120.000000
1.4406000000000003  0.000000  0.000000  0.000000  -48.51582585942257  12.328064875589817  -1.8240458458396984  50.787324693381734  18.493971227786265  9.5973824010099  -5.421160389884975  66.80610815165483  1.699764511691191  6.9871556578549185  120.000000
1.4886200000000003  0.000000  0.000000  0.000000  -48.414246141723964  12.04311300903643  -2.781275040253822  50.71505357858888  19.05338535127641  9.897388650219671  -5.819580356527795  67.57462761685969  1.7208677271539379  7.156706274189138  120.000000
1.5366400000000002  0.000000  0.000000  0.000000  -48.326124928421414  11.804000410001414  -3.691933460214109  50.608415399163086  19.592148878757786  10.208505072844698  -6.175323994243338  68.1067304366302  1.8413476776398616  7.29196030548785  120.000000
1.5846600000000002  0.000000  0.000000  0.000000  -48.25165757439824  11.617924304256382  -4.530044078682035  50.47118214453921  20.117934727379712  10.535981362528936  -6.478428990210321  68.43355557334885  2.0141177725563844  7.358220775590379  120.000000
1.6326800000000001  0.000000  0.000000  0.000000  -48.18987831843006  11.48932911257598  -5.278112793771863  50.3049256321305  20.6352053301947  10.880928801163144  -6.713275331448831  68.57301109728107  2.207082904697899  7.341706904417505  120.000000
1.6807000000000003  0.000000  0.000000  0.000000  -48.13920223921627  11.419440723388032  -5.926530745884785  50.10917270041968  21.14414282466086  11.241699763736523  -6.856862821564821  68.52051737847759  2.405546890514876  7.252384093280255  120.000000
1.7287200000000003  0.000000  0.000000  0.000000  -48.09790200004461  11.405255811518746  -6.47225587274448  49.88434520693823  21.64151706621042  11.612779896314594  -6.8803170993835225  68.24377295808485  2.607350613609727  7.118535179275616  120.000000
1.7767400000000002  0.000000  0.000000  0.000000  -48.06446763834234  11.438440443290542  -6.917178258285793  49.63440991101959  22.12186411705614  11.985693112206878  -6.751790724961303  67.68294917852874  2.8138403251868778  6.978377449410074  120.000000
1.8247600000000004  0.000000  0.000000  0.000000  -48.03763799651873  11.505323899193861  -7.26879513888114  49.369407956686906  22.577340819035125  12.349607375202247  -6.441143091434523  66.75783346524396  3.0201024893044623  6.875014721954662  120.000000
